<svg width="80" height="109" viewBox="0 0 80 109" fill="none" xmlns="http://www.w3.org/2000/svg">
<path fill-rule="evenodd" clip-rule="evenodd" d="M68.5373 20.374C68.504 20.3666 68.4706 20.3594 68.4373 20.3523L68.4373 20.3523C68.4042 20.3446 68.371 20.3371 68.3377 20.3297C62.5487 19.043 56.8128 22.6929 55.5262 28.4819C55.0565 30.595 55.2446 32.7009 55.9543 34.586L61.5816 51.1985L61.5816 51.1986L61.5816 51.1986L61.5816 51.1986L61.5817 51.1985L73.714 38.5357C75.1565 37.1284 76.2197 35.2996 76.6896 33.1856C77.9762 27.3966 74.3263 21.6607 68.5373 20.374ZM65.0464 35.6094C67.611 36.1794 70.1521 34.5625 70.7221 31.9979C71.2921 29.4333 69.6752 26.8922 67.1106 26.3222C64.546 25.7522 62.0049 27.3692 61.4349 29.9337C60.8649 32.4983 62.4818 35.0394 65.0464 35.6094Z" fill="#00B9CB"/>
<path d="M18.5625 32.0938H19.5312C22.1771 32.0938 23.5 33.0208 23.5 34.875C23.5 36.1458 23.0312 37.1354 22.0938 37.8438C21.1562 38.5521 19.8646 38.9062 18.2188 38.9062H15.9375L11.75 49.1875H15.25C17.8958 49.1875 19.2188 50.1146 19.2188 51.9688C19.2188 53.2396 18.75 54.2292 17.8125 54.9375C16.8958 55.6458 15.6042 56 13.9375 56H8.34375C6.76042 56 5.5 55.6354 4.5625 54.9062C3.64583 54.1771 3.1875 53.1875 3.1875 51.9375C3.1875 51.1667 3.375 50.3125 3.75 49.375L4.34375 48L8.03125 38.9062H7.5625C5.22917 38.9062 4.0625 38 4.0625 36.1875C4.0625 34.8958 4.52083 33.8958 5.4375 33.1875C6.375 32.4583 7.67708 32.0938 9.34375 32.0938H10.7812L12.4375 28L12.7812 27.1562C13.7604 24.8438 15.3021 23.6875 17.4062 23.6875C18.2604 23.6875 18.9896 23.9792 19.5938 24.5625C20.2188 25.125 20.5312 25.8125 20.5312 26.625C20.5312 27.4167 20.2604 28.4167 19.7188 29.625L18.5625 32.0938Z" fill="black"/>
<path d="M40.5938 56.875H44.3438C46.9896 56.875 48.3125 57.7917 48.3125 59.625C48.3125 60.8958 47.8438 61.8854 46.9062 62.5938C45.9688 63.3229 44.6771 63.6875 43.0312 63.6875H37.8438L36.5312 66.9062C33.3438 74.7188 28.6875 78.625 22.5625 78.625C19.3542 78.625 16.6875 77.6354 14.5625 75.6562C12.4167 73.6771 11.3438 71.1979 11.3438 68.2188C11.3438 66.2812 11.8646 64.4583 12.9062 62.75C13.9271 61.0625 15.3333 59.7188 17.125 58.7188C19.3333 57.4896 22.3021 56.875 26.0312 56.875H32.75L33.7188 54.4375C32.4062 55.2292 31.1667 55.625 30 55.625C27.7708 55.625 25.9583 54.8542 24.5625 53.3125C23.1875 51.7708 22.5 49.7604 22.5 47.2812C22.5 43.2812 23.9062 39.6771 26.7188 36.4688C29.5312 33.2604 32.6875 31.6562 36.1875 31.6562C38.75 31.6562 40.6667 32.4896 41.9375 34.1562C42.9167 32.4896 44.3021 31.6562 46.0938 31.6562C46.9688 31.6562 47.7083 31.9479 48.3125 32.5312C48.9375 33.0938 49.25 33.7812 49.25 34.5938C49.25 35.2396 48.9792 36.2292 48.4375 37.5625L40.5938 56.875ZM36.5312 47.5L39.0625 41.3125C39.2708 40.7917 39.375 40.3646 39.375 40.0312C39.375 39.4062 39.0938 38.8854 38.5312 38.4688C37.9896 38.0521 37.3021 37.8438 36.4688 37.8438C34.9688 37.8438 33.5312 38.7083 32.1562 40.4375C30.8021 42.1458 30.125 43.9583 30.125 45.875C30.125 48.0625 31.1458 49.1562 33.1875 49.1562C34.9583 49.1562 36.0729 48.6042 36.5312 47.5ZM29.9688 63.6875H24.5625C22.6875 63.6875 21.2292 64.0833 20.1875 64.875C19.1667 65.6667 18.6562 66.7812 18.6562 68.2188C18.6562 69.1979 19.0104 70.0312 19.7188 70.7188C20.4271 71.4062 21.3021 71.75 22.3438 71.75C23.8438 71.75 25.1562 71.1562 26.2812 69.9688C27.4062 68.7812 28.6354 66.6875 29.9688 63.6875Z" fill="#00B9CB"/>
<circle cx="59.5" cy="58.5" r="4.5" fill="black"/>
</svg>
